<?xml version="1.0" standalone="no"?>
<!DOCTYPE svg PUBLIC "-//W3C//DTD SVG 20010904//EN"
 "http://www.w3.org/TR/2001/REC-SVG-20010904/DTD/svg10.dtd">
<svg version="1.0" xmlns="http://www.w3.org/2000/svg"
 width="314.000000pt" height="258.000000pt" viewBox="0 0 314.000000 258.000000"
 preserveAspectRatio="xMidYMid meet">

<g transform="translate(0.000000,258.000000) scale(0.100000,-0.100000)"
fill="#000000" stroke="none">
<path d="M340 2309 c0 -11 47 -94 170 -299 229 -384 495 -829 536 -898 85
-144 99 -165 109 -165 5 0 69 99 141 219 552 925 667 1118 671 1135 5 19 0 19
-132 17 l-138 -3 -266 -444 c-147 -244 -271 -444 -276 -444 -5 0 -130 200
-276 444 l-267 444 -136 3 c-96 2 -136 -1 -136 -9z"/>
<path d="M2096 2298 c-8 -13 -94 -156 -190 -318 l-176 -295 137 -3 c75 -1 140
1 144 5 4 4 58 91 119 193 62 102 117 188 124 192 6 4 57 8 114 8 91 0 102 -2
101 -17 0 -10 -69 -130 -152 -268 l-152 -250 -264 -5 -263 -5 -175 -290 c-96
-159 -190 -318 -209 -352 l-35 -62 193 -323 c107 -178 200 -323 208 -323 8 0
134 200 282 445 284 471 308 513 308 530 0 7 -45 10 -136 8 l-137 -3 -151
-252 c-83 -138 -154 -255 -158 -258 -8 -8 -118 158 -118 178 0 8 56 108 125
223 68 115 128 216 133 224 8 13 53 16 273 20 l264 5 298 495 c163 272 297
501 297 507 0 10 -84 13 -395 13 l-395 0 -14 -22z"/>
</g>
</svg>
